<svg width="203" height="29" viewBox="0 0 203 29" fill="none" xmlns="http://www.w3.org/2000/svg">
<path d="M16.9163 14.5008C16.9163 13.1661 15.8344 12.0841 14.4997 12.0841C13.165 12.0841 12.083 13.1661 12.083 14.5008C12.083 15.8355 13.165 16.9175 14.4997 16.9175C15.8344 16.9175 16.9163 15.8355 16.9163 14.5008Z" stroke="#CC005A" stroke-width="2.41667" stroke-linecap="round" stroke-linejoin="round"/>
<path d="M9.3771 9.37721C10.0504 8.70313 10.85 8.16838 11.7302 7.80353C12.6103 7.43868 13.5537 7.25088 14.5065 7.25088C15.4592 7.25088 16.4027 7.43868 17.2828 7.80353C18.1629 8.16838 18.9625 8.70313 19.6359 9.37721M19.6238 19.6239C18.9504 20.298 18.1508 20.8327 17.2707 21.1976C16.3906 21.5624 15.4472 21.7502 14.4944 21.7502C13.5416 21.7502 12.5982 21.5624 11.7181 21.1976C10.8379 20.8327 10.0383 20.298 9.36502 19.6239M5.95752 5.95763C8.22348 3.69235 11.2964 2.41979 14.5004 2.41979C17.7045 2.41979 20.7774 3.69235 23.0434 5.95763M23.0434 23.0435C20.7774 25.3087 17.7045 26.5813 14.5004 26.5813C11.2964 26.5813 8.22348 25.3087 5.95752 23.0435" stroke="#CC005A" stroke-width="2.41667" stroke-linecap="round" stroke-linejoin="round"/>
<path d="M29.774 14.1219C29.774 16.1739 30.476 17.9019 31.862 19.2879C33.248 20.6739 34.976 21.3579 37.028 21.3579C38.45 21.3579 39.782 20.9799 40.988 20.2419C42.212 19.4859 43.058 18.4599 43.526 17.1639L40.844 15.9219C40.214 17.4879 38.792 18.5319 37.064 18.5319C35.822 18.5319 34.814 18.0999 34.004 17.2539C33.194 16.3899 32.798 15.3279 32.798 14.0859C32.798 12.8619 33.212 11.8179 34.022 10.9719C34.832 10.1259 35.858 9.69391 37.064 9.69391C38.81 9.69391 40.214 10.6659 40.808 12.2319L43.472 11.0079C43.004 9.72991 42.176 8.70391 40.988 7.96591C39.818 7.22791 38.504 6.84991 37.082 6.84991C35.048 6.84991 33.32 7.55191 31.898 8.97391C30.476 10.3779 29.774 12.0879 29.774 14.1219ZM44.6786 16.3719C44.6786 17.8119 45.1826 18.9999 46.1906 19.9539C47.1986 20.9079 48.4406 21.3759 49.9166 21.3759C51.3746 21.3759 52.6166 20.8899 53.6426 19.9359C54.6686 18.9639 55.1726 17.7579 55.1726 16.3179C55.1726 14.8959 54.6686 13.7259 53.6606 12.7719C52.6526 11.8179 51.4106 11.3319 49.9526 11.3319C48.4946 11.3319 47.2346 11.8179 46.2086 12.7899C45.1826 13.7439 44.6786 14.9499 44.6786 16.3719ZM47.5586 16.3359C47.5586 15.6339 47.7926 15.0399 48.2426 14.5899C48.6926 14.1219 49.2506 13.8879 49.9166 13.8879C50.5826 13.8879 51.1586 14.1219 51.6086 14.5899C52.0586 15.0399 52.2926 15.6339 52.2926 16.3359C52.2926 17.7759 51.2846 18.8019 49.9346 18.8019C49.2686 18.8019 48.6926 18.5679 48.2426 18.1179C47.7926 17.6499 47.5586 17.0559 47.5586 16.3359ZM66.173 21.1599V15.1839C66.173 14.1039 65.885 13.2039 65.291 12.4659C64.715 11.7279 63.851 11.3679 62.699 11.3679C62.285 11.3679 61.781 11.3859 60.935 11.8719C60.521 12.1059 60.215 12.4119 59.981 12.8079H59.963V11.5479H57.173V21.1599H59.981V15.8319C59.981 14.7699 60.575 13.9599 61.709 13.9599C62.807 13.9599 63.383 14.6979 63.383 15.8319V21.1599H66.173ZM74.5036 18.7839C74.3056 18.8379 74.0896 18.8559 73.8556 18.8559C72.7576 18.8559 72.1816 18.4239 72.1816 17.3259V13.9779H74.5576V11.5479H72.1816V8.54191H69.4096V11.5479H67.6456V13.9779H69.3736V17.6679C69.3736 19.9179 70.6876 21.2859 73.1896 21.2859C73.6576 21.2859 74.0896 21.2319 74.5036 21.1059V18.7839ZM85.796 17.1279C85.814 16.9119 85.832 16.5699 85.832 16.1199C85.832 14.6979 85.382 13.5279 84.5 12.6459C83.618 11.7639 82.466 11.3139 81.044 11.3139C79.658 11.3139 78.452 11.7999 77.444 12.7899C76.454 13.7799 75.95 14.9499 75.95 16.3359C75.95 17.8119 76.454 19.0179 77.462 19.9719C78.488 20.9079 79.73 21.3759 81.224 21.3759C83.186 21.3759 84.554 20.6559 85.364 19.1979L83.33 17.8659C82.898 18.5679 82.034 19.0179 81.188 19.0179C79.982 19.0179 78.974 18.2979 78.812 17.1279H85.796ZM78.884 15.2739C78.938 14.8959 79.154 14.5179 79.532 14.1579C79.91 13.7799 80.396 13.5999 80.972 13.5999C82.25 13.5999 82.952 14.4279 83.024 15.2739H78.884ZM96.8292 21.1599V15.1839C96.8292 14.1039 96.5412 13.2039 95.9472 12.4659C95.3712 11.7279 94.5072 11.3679 93.3552 11.3679C92.9412 11.3679 92.4372 11.3859 91.5912 11.8719C91.1772 12.1059 90.8712 12.4119 90.6372 12.8079H90.6192V11.5479H87.8292V21.1599H90.6372V15.8319C90.6372 14.7699 91.2312 13.9599 92.3652 13.9599C93.4632 13.9599 94.0392 14.6979 94.0392 15.8319V21.1599H96.8292ZM105.16 18.7839C104.962 18.8379 104.746 18.8559 104.512 18.8559C103.414 18.8559 102.838 18.4239 102.838 17.3259V13.9779H105.214V11.5479H102.838V8.54191H100.066V11.5479H98.3018V13.9779H100.03V17.6679C100.03 19.9179 101.344 21.2859 103.846 21.2859C104.314 21.2859 104.746 21.2319 105.16 21.1059V18.7839ZM112.183 7.06591V21.1599H121.453V18.4419H115.063V15.3999H120.751V12.6639H115.063V9.80191H121.417V7.06591H112.183ZM125.792 21.1599L127.646 18.3339L129.482 21.1599H132.632L129.158 16.2639L132.542 11.5479H129.446L127.664 14.2659L125.936 11.5479H122.786L126.134 16.3179L122.678 21.1599H125.792ZM140.07 18.7839C139.872 18.8379 139.656 18.8559 139.422 18.8559C138.324 18.8559 137.748 18.4239 137.748 17.3259V13.9779H140.124V11.5479H137.748V8.54191H134.976V11.5479H133.212V13.9779H134.94V17.6679C134.94 19.9179 136.254 21.2859 138.756 21.2859C139.224 21.2859 139.656 21.2319 140.07 21.1059V18.7839ZM148.318 11.5119C148.174 11.4579 147.994 11.4399 147.76 11.4399C146.482 11.4399 145.456 12.1419 145.042 13.0239H145.024V11.5479H142.234V21.1599H145.042V17.0919C145.042 15.3639 145.834 14.2299 147.652 14.2299C147.886 14.2299 148.102 14.2479 148.318 14.2839V11.5119ZM152.369 21.3399C153.647 21.3399 154.601 20.8719 155.249 19.9539L155.285 19.9719V21.1599H157.877V15.2019C157.877 12.6819 156.239 11.3319 153.701 11.3319C151.595 11.3319 150.119 12.0879 149.291 13.6179L151.433 14.8959C151.919 14.0319 152.621 13.5999 153.575 13.5999C154.583 13.5999 155.123 14.1219 155.123 14.7879C155.123 15.2559 154.871 15.4899 154.367 15.4899H153.413C152.333 15.4899 151.433 15.6519 150.551 16.0659C149.687 16.4799 149.129 17.3079 149.129 18.4419V18.4779C149.129 19.3419 149.435 20.0439 150.065 20.5659C150.695 21.0879 151.469 21.3399 152.369 21.3399ZM153.179 19.2879C152.459 19.2879 151.955 18.9639 151.955 18.3159C151.955 17.5959 152.603 17.2179 153.413 17.2179H155.105V17.4339C155.105 18.4959 154.385 19.2879 153.179 19.2879ZM164.964 21.3759C167.106 21.3759 168.852 20.3499 169.59 18.3879L167.106 17.3619C166.692 18.3159 165.99 18.7839 164.982 18.7839C163.614 18.7839 162.678 17.7759 162.678 16.3359C162.678 14.8419 163.686 13.9059 164.982 13.9059C165.936 13.9059 166.638 14.3739 167.052 15.3279L169.518 14.3019C168.888 12.4119 167.124 11.3319 164.982 11.3319C163.542 11.3319 162.318 11.8179 161.31 12.7899C160.302 13.7619 159.798 14.9499 159.798 16.3719C159.798 17.8119 160.284 18.9999 161.256 19.9539C162.228 20.9079 163.47 21.3759 164.964 21.3759ZM177.388 18.7839C177.19 18.8379 176.974 18.8559 176.74 18.8559C175.642 18.8559 175.066 18.4239 175.066 17.3259V13.9779H177.442V11.5479H175.066V8.54191H172.294V11.5479H170.53V13.9779H172.258V17.6679C172.258 19.9179 173.572 21.2859 176.074 21.2859C176.542 21.2859 176.974 21.2319 177.388 21.1059V18.7839ZM178.835 16.3719C178.835 17.8119 179.339 18.9999 180.347 19.9539C181.355 20.9079 182.597 21.3759 184.073 21.3759C185.531 21.3759 186.773 20.8899 187.799 19.9359C188.825 18.9639 189.329 17.7579 189.329 16.3179C189.329 14.8959 188.825 13.7259 187.817 12.7719C186.809 11.8179 185.567 11.3319 184.109 11.3319C182.651 11.3319 181.391 11.8179 180.365 12.7899C179.339 13.7439 178.835 14.9499 178.835 16.3719ZM181.715 16.3359C181.715 15.6339 181.949 15.0399 182.399 14.5899C182.849 14.1219 183.407 13.8879 184.073 13.8879C184.739 13.8879 185.315 14.1219 185.765 14.5899C186.215 15.0399 186.449 15.6339 186.449 16.3359C186.449 17.7759 185.441 18.8019 184.091 18.8019C183.425 18.8019 182.849 18.5679 182.399 18.1179C181.949 17.6499 181.715 17.0559 181.715 16.3359ZM197.413 11.5119C197.269 11.4579 197.089 11.4399 196.855 11.4399C195.577 11.4399 194.551 12.1419 194.137 13.0239H194.119V11.5479H191.329V21.1599H194.137V17.0919C194.137 15.3639 194.929 14.2299 196.747 14.2299C196.981 14.2299 197.197 14.2479 197.413 14.2839V11.5119Z" fill="#CC005A"/>
</svg>
