<svg width="29" height="29" viewBox="0 0 29 29" fill="none" xmlns="http://www.w3.org/2000/svg">
<path d="M16.9163 14.5008C16.9163 13.1661 15.8344 12.0841 14.4997 12.0841C13.165 12.0841 12.083 13.1661 12.083 14.5008C12.083 15.8355 13.165 16.9175 14.4997 16.9175C15.8344 16.9175 16.9163 15.8355 16.9163 14.5008Z" stroke="#CC005A" stroke-width="2.41667" stroke-linecap="round" stroke-linejoin="round"/>
<path d="M9.3771 9.37721C10.0504 8.70313 10.85 8.16838 11.7302 7.80353C12.6103 7.43868 13.5537 7.25088 14.5065 7.25088C15.4592 7.25088 16.4027 7.43868 17.2828 7.80353C18.1629 8.16838 18.9625 8.70313 19.6359 9.37721M19.6238 19.6239C18.9504 20.298 18.1508 20.8327 17.2707 21.1976C16.3906 21.5624 15.4472 21.7502 14.4944 21.7502C13.5416 21.7502 12.5982 21.5624 11.7181 21.1976C10.8379 20.8327 10.0383 20.298 9.36502 19.6239M5.95752 5.95763C8.22348 3.69235 11.2964 2.41979 14.5004 2.41979C17.7045 2.41979 20.7774 3.69235 23.0434 5.95763M23.0434 23.0435C20.7774 25.3087 17.7045 26.5813 14.5004 26.5813C11.2964 26.5813 8.22348 25.3087 5.95752 23.0435" stroke="#CC005A" stroke-width="2.41667" stroke-linecap="round" stroke-linejoin="round"/>
</svg>
